<svg width="88" height="35" viewBox="0 0 88 35" fill="none" xmlns="http://www.w3.org/2000/svg"><path d="M30.4 10.6C30.4 12.6 29.7 14.3 28.3 15.7 26.9 17.2 24.8 18.2 22.2 18.8 23.6 19.2 24.7 19.9 25.4 20.8 26.2 21.7 26.6 22.7 26.6 23.9 26.6 25.7 26 27.3 24.8 28.7 23.7 30 22 31.1 19.8 31.8 17.6 32.5 14.9 32.9 11.8 32.9 10.6 32.9 9.7 32.9 9 32.8 8.9 33.4 8.7 33.9 8.1 34.3 7.6 34.6 6.9 34.8 6.1 34.8 5.2 34.8 4.6 34.6 4.3 34.2 4 33.8 3.9 33.3 3.9 32.5 4.1 29.3 4.5 25.9 5.1 22.3 5.8 18.7 6.5 15.2 7.5 11.9 7.6 11.3 7.9 10.9 8.4 10.7 8.9 10.4 9.6 10.3 10.4 10.3 11.8 10.3 12.5 10.7 12.5 11.5 12.5 11.8 12.4 12.2 12.3 12.6 11.7 14.5 11.1 16.9 10.5 20.1 9.9 23.2 9.4 26.1 9.2 28.9 10.3 29 11.2 29.1 11.9 29.1 15.2 29.1 17.6 28.6 19.1 27.7 20.6 26.7 21.4 25.5 21.4 24 21.4 23 20.9 22.2 20.1 21.5 19.2 20.8 17.7 20.4 15.7 20.3 15.2 20.3 14.9 20.2 14.7 19.9 14.5 19.7 14.4 19.4 14.4 18.9 14.4 18.3 14.6 17.7 14.8 17.3 15.1 16.9 15.6 16.6 16.4 16.6 18 16.6 19.5 16.3 20.9 15.9 22.2 15.4 23.3 14.8 24 14 24.8 13.2 25.2 12.3 25.2 11.2 25.2 9.8 24.5 8.8 23.2 8 21.9 7.2 19.8 6.8 17.1 6.8 14.6 6.8 12.2 7.1 9.8 7.8 7.5 8.4 5.5 9.2 3.9 10.2 3.1 10.7 2.5 10.9 2 10.9 1.6 10.9 1.2 10.7 1 10.5 0.8 10.2 0.7 9.8 0.7 9.3 0.7 8.8 0.8 8.3 1.1 7.8 1.3 7.4 1.9 6.9 2.8 6.4 4.8 5.3 7.1 4.4 9.7 3.8 12.4 3.1 15.1 2.8 17.8 2.8 22 2.8 25.2 3.5 27.3 5 29.3 6.4 30.4 8.3 30.4 10.6ZM34.5 14.4C33.6 14.4 32.8 14.2 32.3 13.7 31.8 13.2 31.6 12.6 31.6 11.8 31.6 11 31.9 10.3 32.5 9.8 33.2 9.2 34 8.9 35 8.9 35.8 8.9 36.5 9.1 37.1 9.6 37.6 10 37.9 10.6 37.9 11.3 37.9 12.3 37.6 13 36.9 13.6 36.3 14.1 35.5 14.4 34.5 14.4ZM34.3 33.2C32.7 33.2 31.6 32.6 30.9 31.6 30.2 30.5 29.9 29.1 29.9 27.3 29.9 26.2 30 24.9 30.3 23.3 30.6 21.6 30.9 20.1 31.3 18.7 31.6 17.9 31.8 17.4 32.2 17.1 32.5 16.8 33.1 16.7 33.9 16.7 35.1 16.7 35.7 17.1 35.7 17.9 35.7 18.5 35.4 19.8 35 21.9 34.4 24.5 34.1 26.2 34.1 27.2 34.1 27.9 34.2 28.4 34.4 28.8 34.6 29.1 34.9 29.3 35.4 29.3 35.8 29.3 36.3 29 36.9 28.5 37.6 27.9 38.4 26.9 39.5 25.7 39.7 25.4 40.1 25.2 40.4 25.2 40.7 25.2 40.9 25.3 41.1 25.6 41.3 25.9 41.4 26.3 41.4 26.8 41.4 27.7 41.2 28.4 40.7 28.9 38.4 31.8 36.3 33.2 34.3 33.2ZM56.4 22.3C56.7 22.3 56.9 22.4 57.1 22.7 57.3 23 57.4 23.4 57.4 23.9 57.4 25 57 25.7 56.3 25.9 54.9 26.4 53.4 26.6 51.7 26.7 51.3 28.7 50.4 30.2 49.1 31.4 47.8 32.6 46.3 33.2 44.6 33.2 43.2 33.2 42 32.8 41 32.2 40.1 31.5 39.3 30.6 38.8 29.5 38.3 28.3 38 27.1 38 25.8 38 24.1 38.4 22.5 39 21.1 39.7 19.7 40.7 18.6 41.8 17.8 43 17.1 44.4 16.7 45.8 16.7 47.6 16.7 49 17.3 50.1 18.5 51.2 19.7 51.8 21.2 52 23 53.1 23 54.4 22.7 55.9 22.3 56.1 22.3 56.3 22.3 56.4 22.3ZM44.9 29.5C45.7 29.5 46.3 29.2 46.9 28.6 47.4 27.9 47.8 27.1 48 25.9 47.3 25.4 46.7 24.8 46.3 24 45.9 23.2 45.7 22.4 45.7 21.5 45.7 21.1 45.8 20.7 45.8 20.4H45.7C44.7 20.4 43.9 20.8 43.3 21.7 42.7 22.6 42.4 23.9 42.4 25.5 42.4 26.8 42.7 27.8 43.1 28.5 43.7 29.1 44.3 29.5 44.9 29.5ZM67.6 25.2C67.9 25.2 68.2 25.3 68.3 25.6 68.5 25.9 68.6 26.3 68.6 26.8 68.6 27.7 68.4 28.4 67.9 28.9 66.9 30.2 65.8 31.2 64.6 32 63.5 32.8 62.1 33.2 60.7 33.2 58.6 33.2 57.1 32.2 56.1 30.4 55.1 28.5 54.6 26.1 54.6 23.1 54.6 20.3 55 17 55.7 13.4 56.4 9.8 57.5 6.6 58.9 4 60.4 1.4 62.1 0.1 64.1 0.1 65.2 0.1 66.1 0.6 66.7 1.7 67.4 2.7 67.7 4.2 67.7 6.1 67.7 8.9 66.9 12.1 65.4 15.8 63.8 19.4 61.7 23.1 59.1 26.7 59.3 27.6 59.5 28.3 59.9 28.7 60.3 29.1 60.8 29.3 61.4 29.3 62.3 29.3 63.2 29.1 63.9 28.5 64.6 28 65.6 27 66.7 25.7 67 25.4 67.3 25.2 67.6 25.2ZM63.3 3.6C62.8 3.6 62.2 4.5 61.5 6.5 60.8 8.4 60.2 10.8 59.7 13.7 59.2 16.6 58.9 19.3 58.9 21.9 60.5 19.2 61.8 16.5 62.8 13.8 63.8 11 64.3 8.5 64.3 6.2 64.3 4.5 64 3.6 63.3 3.6ZM70.4 14.4C69.4 14.4 68.6 14.2 68.1 13.7 67.7 13.2 67.4 12.6 67.4 11.8 67.4 11 67.7 10.3 68.4 9.8 69 9.2 69.8 8.9 70.8 8.9 71.6 8.9 72.3 9.1 72.9 9.6 73.4 10 73.7 10.6 73.7 11.3 73.7 12.3 73.4 13 72.8 13.6 72.2 14.1 71.4 14.4 70.4 14.4ZM70.1 33.2C68.6 33.2 67.4 32.6 66.7 31.6 66.1 30.5 65.7 29.1 65.7 27.3 65.7 26.2 65.9 24.9 66.1 23.3 66.4 21.6 66.7 20.1 67.2 18.7 67.4 17.9 67.7 17.4 68 17.1 68.4 16.8 68.9 16.7 69.7 16.7 70.9 16.7 71.5 17.1 71.5 17.9 71.5 18.5 71.3 19.8 70.8 21.9 70.2 24.5 70 26.2 70 27.2 70 27.9 70.1 28.4 70.2 28.8 70.4 29.1 70.7 29.3 71.2 29.3 71.6 29.3 72.1 29 72.8 28.5 73.4 27.9 74.2 26.9 75.3 25.7 75.6 25.4 75.9 25.2 76.2 25.2 76.5 25.2 76.8 25.3 76.9 25.6 77.1 25.9 77.2 26.3 77.2 26.8 77.2 27.7 77 28.4 76.5 28.9 74.2 31.8 72.1 33.2 70.1 33.2ZM78.4 33.2C77.1 33.2 76 32.7 75.2 31.6 74.3 30.6 73.9 29.2 73.9 27.5 73.9 25.6 74.4 23.8 75.2 22.2 76.1 20.5 77.2 19.2 78.7 18.2 80.1 17.1 81.6 16.6 83.2 16.6 83.7 16.6 84.1 16.7 84.3 16.9 84.4 17.1 84.6 17.5 84.7 18 85.1 17.9 85.6 17.8 86.2 17.8 86.7 17.8 87.2 18 87.5 18.3 87.8 18.5 87.9 18.9 87.9 19.5 87.9 20 87.8 20.9 87.6 22.3 87.3 23.7 87.1 25 87 26.4 86.8 27.6 86.8 29.1 86.8 30.7 86.8 31.6 86.6 32.2 86.2 32.6 85.9 33 85.3 33.2 84.5 33.2 83.7 33.2 83.1 33 82.7 32.6 82.3 32.2 82.1 31.6 82.1 30.7L82.2 30.2C81.4 32.2 80.2 33.2 78.4 33.2ZM79.8 29.6C80.4 29.6 81 29.2 81.6 28.3 82.1 27.4 82.6 25.7 83 23.4L83.7 19.9C82.7 19.9 81.8 20.3 81 21 80.2 21.7 79.5 22.6 79 23.8 78.5 25 78.3 26.2 78.3 27.5 78.3 28.2 78.4 28.7 78.7 29.1 79 29.5 79.3 29.6 79.8 29.6Z" fill="#055E3E"/></svg>