<svg xmlns:svg="http://www.w3.org/2000/svg" xmlns="http://www.w3.org/2000/svg" viewBox="0 0 526.8 140.4" height="140.4" width="526.8" xml:space="preserve" version="1.1"><g transform="matrix(1.25,0,0,-1.25,0,140.375)"><g transform="scale(0.1,0.1)"><path d="m505.7 1122.9-327.8 0c-22.4 0-41.5-16.3-45-38.4L0.3 244C-2.3 227.4 10.6 212.4 27.4 212.4l156.5 0c22.4 0 41.5 16.3 45 38.5l35.8 226.7c3.5 22.2 22.6 38.5 45 38.5l103.8 0c215.9 0 340.5 104.5 373.1 311.5 14.7 90.6 0.6 161.8-41.8 211.6-46.6 54.7-129.2 83.7-238.9 83.7zM543.5 815.9C525.6 698.3 435.7 698.3 348.8 698.3l-49.5 0 34.7 219.7c2.1 13.3 13.6 23.1 27 23.1l22.7 0c59.2 0 115 0 143.9-33.7 17.2-20.1 22.5-50 15.9-91.4M1485.5 819.7l-157 0c-13.4 0-24.9-9.8-27-23.1l-6.9-43.9-11 15.9c-34 49.3-109.8 65.8-185.4 65.8-173.5 0-321.6-131.4-350.5-315.7-15-91.9 6.3-179.8 58.5-241.1 47.8-56.4 116.3-79.8 197.7-79.8 139.8 0 217.3 89.9 217.3 89.9l-7-43.6c-2.6-16.7 10.2-31.6 26.9-31.6l141.4 0c22.5 0 41.5 16.3 45 38.5l84.8 537.2c2.7 16.5-10.1 31.5-26.9 31.5zM1266.7 514.2c-15.1-89.7-86.3-149.9-177.1-149.9-45.6 0-82 14.6-105.4 42.3-23.2 27.5-32 66.7-24.6 110.3 14.1 88.9 86.5 151.1 175.9 151.1 44.6 0 80.8-14.8 104.7-42.7 23.9-28.2 33.4-67.6 26.6-111.1M2321.5 819.7l-157.7 0c-15 0-29.2-7.5-37.7-20L1908.5 479.3 1816.3 787.2c-5.8 19.3-23.6 32.5-43.7 32.5l-155 0c-18.8 0-31.9-18.4-25.9-36.1L1765.4 273.7 1602 43.1C1589.2 25 1602.1 0 1624.3 0l157.5 0c15 0 29 7.3 37.4 19.6L2343.9 776.8c12.6 18.1-0.3 42.9-22.4 42.9" fill="#283b82"/><path d="m2843.7 1122.9-327.8 0c-22.4 0-41.5-16.3-45-38.4L2338.3 244c-2.6-16.6 10.2-31.5 26.9-31.5l168.2 0c15.6 0 29 11.4 31.4 26.9l37.6 238.3c3.5 22.2 22.6 38.5 45 38.5l103.7 0c216 0 340.5 104.5 373.1 311.5 14.7 90.6 0.6 161.8-41.8 211.6-46.5 54.7-129.1 83.7-238.8 83.7zm37.8-307C2863.6 698.3 2773.8 698.3 2686.8 698.3l-49.4 0 34.8 219.7c2.1 13.3 13.5 23.1 26.9 23.1l22.7 0c59.2 0 115 0 143.9-33.7 17.2-20.1 22.4-50 15.9-91.4M3823.5 819.7l-156.9 0c-13.5 0-24.9-9.8-26.9-23.1l-6.9-43.9-11 15.9c-34 49.3-109.7 65.8-185.3 65.8-173.5 0-321.5-131.4-350.4-315.7-14.9-91.9 6.3-179.8 58.4-241.1 47.9-56.4 116.3-79.8 197.7-79.8 139.8 0 217.3 89.9 217.3 89.9l-7-43.6c-2.6-16.7 10.2-31.6 27-31.6l141.3 0c22.4 0 41.5 16.3 45 38.5l84.9 537.2c2.6 16.5-10.3 31.5-27.1 31.5zM3604.7 514.2c-15-89.7-86.3-149.9-177.1-149.9-45.5 0-82 14.6-105.4 42.3-23.2 27.5-31.9 66.7-24.6 110.3 14.2 88.9 86.5 151.1 175.9 151.1 44.6 0 80.8-14.8 104.7-42.7 24-28.2 33.5-67.6 26.6-111.1M4008.5 1099.9 3874 244c-2.6-16.6 10.2-31.5 26.9-31.5l135.3 0c22.5 0 41.6 16.3 45 38.5l132.7 840.5c2.6 16.6-10.2 31.6-26.9 31.6l-151.5 0c-13.4 0-24.9-9.8-26.9-23.1" fill="#469bdb"/></g></g></svg>