<svg xmlns="http://www.w3.org/2000/svg" fill="none" viewBox="0 0 400 400"><defs/><path fill="#055E3E" d="M0 0h400v400H0z"/><path fill="#fff" d="M334 126.349c0 17.957-6.321 33.484-18.962 46.582-12.642 12.887-31.077 22.182-55.307 27.886 13.063 3.591 22.966 9.506 29.708 17.746 6.742 8.027 10.113 17.323 10.113 27.885 0 16.69-5.267 31.161-15.802 43.414-10.324 12.253-25.494 21.759-45.509 28.52-20.016 6.549-44.14 9.823-72.373 9.823-10.535 0-18.962-.317-25.283-.951-.211 5.916-2.739 10.352-7.585 13.31-4.846 2.957-11.061 4.436-18.646 4.436-7.585 0-12.852-1.69-15.802-5.07-2.74-3.38-3.898-8.345-3.477-14.894 1.897-29.576 5.584-60.525 11.062-92.847 5.478-32.534 12.431-63.906 20.858-94.116 1.475-5.281 4.425-8.978 8.849-11.091 4.425-2.112 10.219-3.168 17.382-3.168 12.853 0 19.279 3.591 19.279 10.774 0 2.957-.632 6.337-1.897 10.14-5.477 16.478-10.955 38.871-16.433 67.18-5.478 28.097-9.376 54.927-11.694 80.489 10.113.845 18.33 1.267 24.651 1.267 29.497 0 51.093-4.225 64.788-12.675 13.905-8.662 20.858-19.647 20.858-32.956 0-9.295-4.003-17.112-12.009-23.45-7.796-6.337-20.964-9.823-39.505-10.457-4.214-.211-7.163-1.267-8.849-3.169-1.685-1.901-2.528-4.964-2.528-9.189 0-6.127 1.264-11.091 3.792-14.894 2.529-3.803 7.164-5.81 13.906-6.021 14.959-.422 28.443-2.641 40.453-6.655 12.22-4.013 21.806-9.612 28.759-16.794 6.953-7.394 10.429-15.95 10.429-25.668 0-12.253-6.004-21.865-18.014-28.837-12.009-7.183-30.445-10.774-55.306-10.774-22.544 0-44.351 2.958-65.42 8.873-21.069 5.704-38.978 12.992-53.727 21.865-6.742 4.014-12.43 6.021-17.066 6.021-3.792 0-6.742-1.268-8.849-3.803-1.896-2.746-2.844-6.126-2.844-10.14 0-5.282 1.053-9.824 3.16-13.626 2.318-3.803 7.69-8.134 16.118-12.993 17.698-10.14 38.452-18.062 62.26-23.766C171.346 58.852 195.681 56 220.542 56c38.136 0 66.579 6.443 85.331 19.33C324.624 88.217 334 105.223 334 126.349z"/></svg>