<svg xmlns:svg="http://www.w3.org/2000/svg" xmlns="http://www.w3.org/2000/svg" width="22" height="22" viewBox="0 0 22 22" fill="none" version="1.1"><circle cx="11" cy="11" r="11" style="fill:#fff;stroke-width:1"/><path d="M11 0C4.9 0 0 4.9 0 11c0 6.1 4.9 11 11 11 6.1 0 11-4.9 11-11C22 4.9 17.1 0 11 0Zm4.9 8.5c0 0.1 0 0.2 0 0.3 0 3.3-2.5 7.2-7.2 7.2-1.4 0-2.8-0.4-3.9-1.1 0.2 0 0.4 0 0.6 0 1.2 0 2.3-0.4 3.1-1.1-1.1 0-2-0.8-2.4-1.8 0.2 0 0.3 0 0.5 0 0.2 0 0.5 0 0.7-0.1-1.2-0.2-2-1.3-2-2.5 0 0 0 0 0 0 0.3 0.2 0.7 0.3 1.1 0.3-0.7-0.5-1.1-1.2-1.1-2.1 0-0.5 0.1-0.9 0.3-1.3 1.2 1.5 3.1 2.5 5.2 2.6 0-0.2-0.1-0.4-0.1-0.6 0-1.4 1.1-2.5 2.5-2.5 0.7 0 1.4 0.3 1.8 0.8 0.6-0.1 1.1-0.3 1.6-0.6-0.2 0.6-0.6 1.1-1.1 1.4 0.5-0.1 1-0.2 1.5-0.4-0.3 0.5-0.8 1-1.3 1.3z" fill="#bbc1c6"/></svg>