<svg width="109" height="109" viewBox="0 0 109 109" fill="none" xmlns="http://www.w3.org/2000/svg"><g filter="url(#filter0_d)"><circle cx="54.5" cy="51.5" r="31.5" fill="#2CAA58"/></g><circle cx="54.5" cy="51.5" r="28.5" fill="#2CAA58" stroke="white" stroke-width="2"/><path d="M39.64 53H46.56C46.84 53 47.0733 53.0933 47.26 53.28 47.46 53.4667 47.56 53.7 47.56 53.98 47.56 54.26 47.46 54.4867 47.26 54.66 47.0733 54.8333 46.84 54.92 46.56 54.92H40.52L40.72 54.58V59.06L40.54 58.86H45.66C45.94 58.86 46.1733 58.9533 46.36 59.14 46.56 59.3267 46.66 59.5667 46.66 59.86 46.66 60.14 46.56 60.3667 46.36 60.54 46.1733 60.7133 45.94 60.8 45.66 60.8H40.58L40.72 60.62V65.24L40.58 65.08H46.56C46.84 65.08 47.0733 65.18 47.26 65.38 47.46 65.5667 47.56 65.7867 47.56 66.04 47.56 66.32 47.46 66.5533 47.26 66.74 47.0733 66.9133 46.84 67 46.56 67H39.64C39.36 67 39.12 66.9067 38.92 66.72 38.72 66.52 38.62 66.2733 38.62 65.98V54.02C38.62 53.7267 38.72 53.4867 38.92 53.3 39.12 53.1 39.36 53 39.64 53ZM54.3081 56.24C55.0281 56.24 55.6615 56.32 56.2081 56.48 56.7681 56.6267 57.2081 56.84 57.5281 57.12 57.8481 57.3867 58.0081 57.7 58.0081 58.06 58.0081 58.2867 57.9348 58.5 57.7881 58.7 57.6548 58.8867 57.4615 58.98 57.2081 58.98 57.0081 58.98 56.8415 58.9467 56.7081 58.88 56.5881 58.8133 56.4748 58.7333 56.3681 58.64 56.2615 58.5467 56.1281 58.4533 55.9681 58.36 55.8215 58.28 55.6015 58.2133 55.3081 58.16 55.0281 58.1067 54.7748 58.08 54.5481 58.08 53.8415 58.08 53.2281 58.24 52.7081 58.56 52.2015 58.88 51.8015 59.3133 51.5081 59.86 51.2281 60.4067 51.0881 61.0267 51.0881 61.72 51.0881 62.4133 51.2281 63.0333 51.5081 63.58 51.8015 64.1267 52.1948 64.56 52.6881 64.88 53.1948 65.2 53.7815 65.36 54.4481 65.36 54.8481 65.36 55.1748 65.3333 55.4281 65.28 55.6948 65.2133 55.9148 65.1333 56.0881 65.04 56.3015 64.92 56.4748 64.8 56.6081 64.68 56.7415 64.5467 56.9348 64.48 57.1881 64.48 57.4815 64.48 57.7015 64.5733 57.8481 64.76 58.0081 64.9333 58.0881 65.1533 58.0881 65.42 58.0881 65.7133 57.9081 66 57.5481 66.28 57.2015 66.5467 56.7348 66.7667 56.1481 66.94 55.5615 67.1133 54.9148 67.2 54.2081 67.2 53.1681 67.2 52.2615 66.96 51.4881 66.48 50.7281 66 50.1348 65.3467 49.7081 64.52 49.2948 63.6933 49.0881 62.76 49.0881 61.72 49.0881 60.6667 49.3081 59.7333 49.7481 58.92 50.1881 58.0933 50.8015 57.44 51.5881 56.96 52.3748 56.48 53.2815 56.24 54.3081 56.24ZM70.0211 61.74C70.0211 62.8067 69.7811 63.7533 69.3011 64.58 68.8344 65.3933 68.2011 66.0333 67.4011 66.5 66.6011 66.9667 65.7011 67.2 64.7011 67.2 63.7144 67.2 62.8144 66.9667 62.0011 66.5 61.2011 66.0333 60.5611 65.3933 60.0811 64.58 59.6144 63.7533 59.3811 62.8067 59.3811 61.74 59.3811 60.66 59.6144 59.7133 60.0811 58.9 60.5611 58.0733 61.2011 57.4267 62.0011 56.96 62.8144 56.48 63.7144 56.24 64.7011 56.24 65.7011 56.24 66.6011 56.48 67.4011 56.96 68.2011 57.4267 68.8344 58.0733 69.3011 58.9 69.7811 59.7133 70.0211 60.66 70.0211 61.74ZM68.0211 61.74C68.0211 61.0067 67.8744 60.3733 67.5811 59.84 67.2878 59.2933 66.8878 58.8667 66.3811 58.56 65.8878 58.24 65.3278 58.08 64.7011 58.08 64.0878 58.08 63.5278 58.24 63.0211 58.56 62.5278 58.8667 62.1278 59.2933 61.8211 59.84 61.5278 60.3733 61.3811 61.0067 61.3811 61.74 61.3811 62.4467 61.5278 63.0733 61.8211 63.62 62.1278 64.1667 62.5278 64.5933 63.0211 64.9 63.5278 65.2067 64.0878 65.36 64.7011 65.36 65.3278 65.36 65.8878 65.2067 66.3811 64.9 66.8878 64.5933 67.2878 64.1667 67.5811 63.62 67.8744 63.0733 68.0211 62.4467 68.0211 61.74ZM56.2573 51C56.2573 51 71.78 47.7792 67.1305 31 67.1305 31 53.2288 35.9023 55.4353 50.359 55.4353 50.359 57.4586 41 63.4273 36.9924 63.4279 36.9924 58.1601 43.7327 56.2573 51ZM53.7448 51.0001C53.7448 51.0001 42.1849 48.6015 45.6498 36.1055 45.6498 36.1055 56.0022 39.7559 54.3594 50.5226 54.3594 50.5226 53.6014 45.5477 49.322 42.5264 49.3195 42.5264 51.1584 43.5528 53.7448 51.0001Z" fill="white"/><defs><filter id="filter0_d" x="0" y="0" width="109" height="109" filterUnits="userSpaceOnUse" color-interpolation-filters="sRGB"><feFlood flood-opacity="0" result="BackgroundImageFix"/><feColorMatrix in="SourceAlpha" type="matrix" values="0 0 0 0 0 0 0 0 0 0 0 0 0 0 0 0 0 0 127 0"/><feOffset dy="3"/><feGaussianBlur stdDeviation="11.5"/><feColorMatrix type="matrix" values="0 0 0 0 0.172549 0 0 0 0 0.666667 0 0 0 0 0.345098 0 0 0 0.21 0"/><feBlend mode="normal" in2="BackgroundImageFix" result="effect1_dropShadow"/><feBlend mode="normal" in="SourceGraphic" in2="effect1_dropShadow" result="shape"/></filter></defs></svg>