<svg xmlns:svg="http://www.w3.org/2000/svg" xmlns="http://www.w3.org/2000/svg" width="22" height="22" viewBox="0 0 22 22" fill="none" version="1.1"><circle cx="11" cy="11" r="11" style="fill:#fff;stroke-width:0.9"/><path d="M14.3 5.8H7.7c-1 0-1.9 0.9-1.9 1.9V14.3c0 1 0.9 1.9 1.9 1.9h6.6c1 0 1.9-0.9 1.9-1.9V7.7c0-1-0.9-1.9-1.9-1.9zm-3.3 8.6c-1.9 0-3.4-1.5-3.4-3.4 0-1.9 1.5-3.4 3.4-3.4 1.9 0 3.4 1.5 3.4 3.4 0 1.9-1.5 3.4-3.4 3.4zm3.5-6.1c-0.4 0-0.8-0.4-0.8-0.8 0-0.4 0.4-0.8 0.8-0.8 0.4 0 0.8 0.4 0.8 0.8 0 0.4-0.4 0.8-0.8 0.8zM11 9 11 9c-1.1 0-2 0.9-2 2 0 1.1 0.9 2 2 2 1.1 0 2-0.9 2-2 0-1.1-0.9-2-2-2zM11 0C4.9 0 0 4.9 0 11 0 17.1 4.9 22 11 22 17.1 22 22 17.1 22 11 22 4.9 17.1 0 11 0ZM17.6 14.3c0 1.8-1.5 3.3-3.3 3.3h-6.6c-1.8 0-3.3-1.5-3.3-3.3V7.8c0-1.8 1.5-3.3 3.3-3.3h6.6c1.8 0 3.3 1.5 3.3 3.3z" fill="#bbc1c6"/></svg>