<svg width="256" height="256" viewBox="0 0 256 256" fill="none" xmlns="http://www.w3.org/2000/svg"><path d="M121.26 124.83L116.11 58.25 97.09 46.37 67.37 62.22 53.1 105.41H62.22L87.58 99.86 92.73 109.38 97.09 128.4H80.84L67.37 133.55V148.21H89.96L92.73 177.54 87.58 210.03 77.67 237.38H186.65L182.29 226.28 170.4 203.69V171.2 150.99L193.78 145.83V133.55L170.4 124.83 176.35 79.65V51.52L166.04 19.42 141.47 70.54V124.83H121.26Z" fill="#FFF"/><path fill-rule="evenodd" clip-rule="evenodd" d="M172.5 26.56L176.05 43.32C179.54 59.75 179.82 76.7 176.91 93.24L171.03 126.55 182.84 128.64 188.72 95.32C191.91 77.27 191.59 58.77 187.79 40.83L181.38 10.55C180.02 4.15 171.4 2.94 168.34 8.74L160 19.5 168.91 33.36 172.5 26.56ZM179.75 218.59L185.27 236.5H88.42L77.47 241.59C75.69 246.63 79.21 252 84.29 252H185.27C192.77 252 208 252 200 235L187.33 208.23C178.56 189.68 178.34 168.22 186.76 149.5 186.91 149.19 187.06 148.88 187.22 148.58 188.48 146.06 189.52 144 186.76 144H97.74L103.46 151.71H172.48C165.91 172.8 170.82 198.13 179.75 218.59Z" fill="#8625E7"/><path fill-rule="evenodd" clip-rule="evenodd" d="M177.78 95.23L173.06 122H184C192.28 122 199 128.72 199 137V138C199 146.28 192.28 153 184 153H175.18C168.34 170.24 168.8 189.64 176.67 206.65L188.41 232.06C190.55 236.7 187.16 242 182.05 242H74.09C69.2 242 65.82 237.13 67.53 232.55L77.86 204.9C84.09 188.24 84.94 170.1 80.37 153H71C62.72 153 56 146.28 56 138V137C56 128.72 62.72 122 71 122H87L86.65 121.01 86.65 121.01C85.52 117.8 84.31 114.37 83.22 111 82.14 107.68 81.14 104.3 80.43 101.13 77.32 103.04 74.13 104.78 70.77 106.21 57.99 111.66 48.6 112.97 45 106.5 39.62 96.81 55.73 55.93 79 43 90.99 36.34 100.47 38.75 107.59 43.97 115.93 50.09 124.58 64.13 124 72.65V122H132.23L131.21 100.03C130.04 74.9 135.62 49.91 147.36 27.66L157.4 8.64C160.46 2.85 169.08 4.05 170.44 10.46L176.85 40.74C180.65 58.68 180.97 77.18 177.78 95.23ZM161.56 26.46L165.11 43.23C168.6 59.66 168.88 76.61 165.97 93.15L160.87 122H144.25L143.2 99.47C142.13 76.48 147.23 53.62 157.97 33.27L161.56 26.46ZM91.91 97.46C91.61 95.94 91.44 94.7 91.36 93.72L91.87 93.36C98.03 88.98 104.2 84.59 111 81.39 111.33 81.23 111.67 81.1 112 80.98V122H99.71C99.28 120.76 98.84 119.49 98.39 118.21 98.25 117.83 98.12 117.45 97.98 117.07L97.97 117.02C96.83 113.79 95.67 110.51 94.63 107.31 93.46 103.69 92.5 100.34 91.91 97.46ZM71 134H184C185.66 134 187 135.34 187 137V138C187 139.66 185.66 141 184 141H71C69.34 141 68 139.66 68 138V137C68 135.34 69.34 134 71 134ZM94.97 169C95.06 170.66 95.1 172.33 95.1 174H138.09C138.6 174 139.08 174.26 139.44 174.73 139.8 175.2 140 175.84 140 176.5 140 177.16 139.8 177.8 139.44 178.27 139.08 178.74 138.6 179 138.09 179H95C94.55 189.38 92.61 199.72 89.1 209.1L81.29 230H174.24L165.77 211.68C161.13 201.65 159 190.31 159.02 179H145.87C145.33 179 144.81 178.74 144.43 178.27 144.05 177.8 143.84 177.16 143.84 176.5 143.85 175.84 144.06 175.21 144.44 174.75 144.82 174.28 145.33 174.01 145.87 174H159.17C159.26 172.33 159.4 170.66 159.59 169H94.97ZM94.61 164H160.29C160.93 160.25 161.79 156.56 162.87 153H92.94C93.69 156.58 94.25 160.26 94.61 164ZM110.01 68.75C110.71 68.48 111.09 67.72 110.83 67.03 109.05 62.34 104.68 56.73 100.49 53.65 98.27 52.02 96.16 51.17 94.06 50.98 92.03 50.8 89.04 51.15 84.83 53.49 76.33 58.21 67.87 69.08 62.07 81.16 59.27 87 57.4 92.49 56.52 96.74 56.39 97.39 56.28 97.98 56.2 98.52 58.5 98.04 61.74 97.01 66.06 95.17 71.96 92.66 77.46 88.88 84.02 84.22 84.39 83.96 84.76 83.69 85.13 83.43 91.11 79.17 98.08 74.21 105.89 70.53 107.38 69.83 108.77 69.25 110.01 68.75ZM56 101.97C56 101.97 56 101.95 55.99 101.91 56 101.95 56 101.97 56 101.97Z" fill="#3B3B3B"/><path d="M48.7 181.56L39.1 179.96 37.86 179.4 33.46 170.6C33.32 170.34 33.08 170.14 32.8 170.05 32.52 169.97 32.21 169.99 31.94 170.12 31.74 170.23 31.58 170.4 31.46 170.6L27.06 179.4C27.06 179.8 26.66 179.8 26.26 179.8L16.66 181.4C15.86 181.4 15.86 182.2 16.26 183.4L23.06 190.2C23.27 190.42 23.4 190.7 23.46 191L21.86 200.6C21.86 201.4 22.66 202.2 23.46 201.4L32.26 197H33.06L41.86 201.4C42.01 201.46 42.16 201.5 42.32 201.5 42.48 201.5 42.63 201.47 42.78 201.41 42.93 201.35 43.06 201.26 43.17 201.15 43.28 201.04 43.37 200.9 43.42 200.76L41.82 191.16C41.82 190.76 41.82 190.76 42.22 190.36L49.02 183.56C49.13 183.41 49.21 183.24 49.25 183.07 49.29 182.89 49.3 182.71 49.27 182.53 49.24 182.35 49.17 182.18 49.08 182.03 48.98 181.87 48.85 181.74 48.7 181.64V181.56Z" fill="#3D3E3D"/><path d="M240.7 77.56L231.1 75.96 229.86 75.4 225.46 66.6C225.32 66.34 225.08 66.14 224.8 66.05 224.52 65.96 224.21 65.99 223.94 66.12 223.75 66.23 223.58 66.4 223.46 66.6L219.06 75.4C219.06 75.8 218.66 75.8 218.26 75.8L208.66 77.4C207.86 77.4 207.86 78.2 208.26 79.4L215.06 86.2C215.27 86.42 215.4 86.7 215.46 87L213.86 96.6C213.86 97.4 214.66 98.2 215.46 97.4L224.26 93H225.06L233.86 97.4C234.01 97.46 234.16 97.5 234.32 97.5 234.48 97.5 234.64 97.47 234.78 97.41 234.93 97.35 235.06 97.26 235.17 97.15 235.28 97.04 235.37 96.9 235.42 96.76L233.82 87.16C233.82 86.76 233.82 86.76 234.22 86.36L241.02 79.56C241.13 79.41 241.21 79.24 241.25 79.07 241.29 78.89 241.3 78.71 241.27 78.53 241.24 78.35 241.17 78.18 241.08 78.03 240.98 77.87 240.85 77.74 240.7 77.64V77.56Z" fill="#3D3E3D"/></svg>